<?xml version="1.0" encoding="UTF-8"?>
<!-- Generator: Adobe Illustrator 27.0.1, SVG Export Plug-In . SVG Version: 6.00 Build 0) -->
<svg xmlns="http://www.w3.org/2000/svg" xmlns:xlink="http://www.w3.org/1999/xlink" version="1.1" id="Livello_1" x="0px" y="0px" viewBox="0 0 728 728" style="enable-background:new 0 0 728 728;" xml:space="preserve"> <style type="text/css"> .st0{fill:#E42313;} .st1{fill:#FFFFFF;} </style> <g> <path class="st0" d="M364,728c201,0,364-162.9,364-364C728,163,565,0,364,0S0,163,0,364C0,565.1,163,728,364,728L364,728z"></path> <path class="st1" d="M557.9,349.7c-4.5,0-8.2,3.7-8.2,8.3v7.7h-53.6v-95h2.8c3.2,0,6.1-1.9,7.5-4.8c1.3-3,0.9-6.4-1.2-8.9 L457.7,201c-1.6-1.8-3.9-2.9-6.3-2.9H276.6c-2.4,0-4.7,1-6.3,2.9L222.9,257c-2.1,2.5-2.6,5.9-1.2,8.9c1.4,3,4.3,4.8,7.5,4.8h2.8v95 h-53.6V358c0-4.6-3.7-8.3-8.2-8.3c-4.5,0-8.3,3.7-8.3,8.3v16c0,29,3.5,53,10.4,71.4c1.3,3.3,4.4,5.3,7.7,5.3c1,0,2-0.2,2.9-0.5 c4.3-1.6,6.4-6.4,4.7-10.7c-5.6-14.8-8.7-34-9.2-57.2h371.1c-0.6,23.2-3.7,42.4-9.2,57.2c-1.6,4.3,0.5,9.1,4.7,10.7 c4.3,1.6,9-0.5,10.6-4.8c6.9-18.4,10.4-42.4,10.4-71.4v-16C566.1,353.4,562.5,349.7,557.9,349.7L557.9,349.7z M280.4,214.8h167.2 l33.4,39.3H247L280.4,214.8L280.4,214.8z"></path> <path class="st1" d="M170.2,483c14.4,0,28.2-5.7,38.6-15.6c10.4,9.9,24.2,15.6,38.5,15.6c14.4,0,28.2-5.7,38.6-15.6 c10.3,9.9,24.1,15.6,38.5,15.6c14.6,0,28.2-5.6,38.6-15.6c10.3,9.9,24.1,15.6,38.5,15.6c14.4,0,28.2-5.7,38.6-15.6 c10.4,9.9,24.2,15.6,38.5,15.6c14.4,0,28.2-5.7,38.6-15.6c1.9,1.8,4,3.5,6.2,5.1v0c0.3,0.2,0.7,0.5,1.1,0.7 c0.1,0.1,0.2,0.1,0.2,0.2c0.4,0.3,0.9,0.6,1.3,0.9c0.1,0.1,0.2,0.1,0.4,0.2c0.4,0.3,0.9,0.5,1.3,0.8c0.1,0.1,0.2,0.1,0.4,0.2 c0.4,0.3,0.9,0.5,1.4,0.8c0.1,0.1,0.2,0.1,0.3,0.2c2.6,1.4,5.4,2.6,8.2,3.6c0.1,0,0.2,0.1,0.4,0.1c0.5,0.2,0.9,0.3,1.4,0.5 c0.2,0,0.3,0.1,0.5,0.1c0.5,0.1,0.9,0.3,1.4,0.4c0.2,0,0.3,0.1,0.5,0.1c0.5,0.1,0.9,0.2,1.4,0.3c0,0,0.1,0,0.1,0v0 c4,0.9,8.1,1.4,12.3,1.4c4.5,0,8.2-3.7,8.2-8.3c0-4.6-3.7-8.4-8.2-8.4c-12.7,0-24.3-6-32-16.3c-0.1-0.2-0.3-0.4-0.4-0.5v0 c-1.6-1.8-3.8-2.8-6.2-2.8c-2.6,0-5.1,1.2-6.6,3.4c-7.6,10.4-19.3,16.3-32,16.3c-12.7,0-24.3-6-31.9-16.3c-1.6-2.1-4-3.4-6.6-3.4 c-2.6,0-5.1,1.2-6.6,3.4c-7.6,10.4-19.3,16.3-32,16.3c-12.5,0-24.4-6.1-31.9-16.3c-1.6-2.1-4-3.4-6.6-3.4c-2.6,0-5,1.2-6.6,3.4 c-7.6,10.4-19.3,16.4-32,16.4c-12.5,0-24.4-6.1-31.9-16.3c-1.6-2.1-4-3.4-6.6-3.4c-2.6,0-5.1,1.2-6.6,3.4 c-7.5,10.3-19.5,16.3-32,16.3c-12.5,0-24.4-6.1-31.9-16.3c-1.6-2.1-4-3.4-6.6-3.4s-5.1,1.2-6.6,3.4c-7.6,10.4-19.3,16.3-32,16.3 c-4.5,0-8.2,3.7-8.2,8.3C162,479.3,165.6,483,170.2,483L170.2,483z"></path> <path class="st1" d="M555.6,513.3c-12.7,0-24.3-6-32-16.3c-0.1-0.2-0.3-0.4-0.4-0.5v0c-1.6-1.8-3.8-2.8-6.2-2.8 c-2.6,0-5.1,1.2-6.6,3.4c-7.6,10.4-19.3,16.3-32,16.3c-12.7,0-24.3-6-31.9-16.3c-1.6-2.1-4-3.4-6.6-3.4c-2.6,0-5.1,1.2-6.6,3.4 c-7.6,10.4-19.3,16.3-32,16.3c-12.5,0-24.4-6.1-31.9-16.3c-1.6-2.1-4-3.4-6.6-3.4c-2.6,0-5,1.2-6.6,3.4 c-7.6,10.4-19.3,16.4-32,16.4c-12.5,0-24.4-6.1-31.9-16.3c-1.6-2.1-4-3.4-6.6-3.4c-2.6,0-5.1,1.2-6.6,3.4 c-7.5,10.3-19.5,16.3-32,16.3c-12.5,0-24.4-6.1-31.9-16.3c-1.6-2.1-4-3.4-6.6-3.4s-5.1,1.2-6.6,3.4c-7.6,10.4-19.3,16.3-32,16.3 c-4.5,0-8.2,3.7-8.2,8.3c0,4.6,3.7,8.3,8.2,8.3c14.4,0,28.2-5.7,38.6-15.6c10.4,9.9,24.2,15.6,38.5,15.6c14.4,0,28.2-5.7,38.6-15.6 c10.3,9.9,24.1,15.6,38.5,15.6c14.6,0,28.2-5.6,38.6-15.6c10.3,9.9,24.1,15.6,38.5,15.6c14.4,0,28.2-5.7,38.6-15.6 c10.4,9.9,24.2,15.6,38.5,15.6c14.4,0,28.2-5.7,38.6-15.6c1.9,1.8,4,3.5,6.2,5.1v0c0.3,0.2,0.7,0.5,1.1,0.7 c0.1,0.1,0.2,0.1,0.2,0.2c0.4,0.3,0.9,0.6,1.3,0.9c0.1,0.1,0.2,0.1,0.4,0.2c0.4,0.3,0.9,0.5,1.3,0.8c0.1,0.1,0.2,0.1,0.4,0.2 c0.4,0.3,0.9,0.5,1.4,0.8c0.1,0.1,0.2,0.1,0.3,0.2c2.6,1.4,5.4,2.6,8.2,3.6c0.1,0,0.2,0.1,0.4,0.1c0.5,0.2,0.9,0.3,1.4,0.5 c0.2,0,0.3,0.1,0.5,0.1c0.5,0.1,0.9,0.3,1.4,0.4c0.2,0,0.3,0.1,0.5,0.1c0.5,0.1,0.9,0.2,1.4,0.3c0,0,0.1,0,0.1,0v0 c4,0.9,8.1,1.4,12.3,1.4c4.5,0,8.2-3.7,8.2-8.3C563.9,517,560.2,513.3,555.6,513.3L555.6,513.3z"></path> <path class="st0" d="M378.3,365c-5.7,3.3-12.2,4.7-19.2,4.8c6.8-4.1,14.6-9.4,18.2-16.8C377.9,356.8,378,361.1,378.3,365L378.3,365 z M385.6,307.1c-1.4,4.4-2.6,8.5-3.9,12.9c-0.8-2.6-1.6-5.3-2.7-7.8c-2.7-6.3-6.6-12.5-11.6-17.5c-6-5.5-12.8-9.9-20.9-10.7 c-5.8-1.3-12.5-0.7-17.9,1c-3.8,1-7.1,3.1-10.5,5.1c-4.8,3.3-7.9,8.4-10.6,13.3c-2.1,5.2-4.1,10.5-3.5,16.6 c-0.3,9.4,3,17.8,9.4,24.5c4.2,3.5,8.8,6.9,14,8.2c8.3,2.4,17.9,0.8,24.6-3.8c3.5-2.4,5.6-5.8,7.6-9.3c1.7-4.1,2.5-8.5,2.6-13.2 c-0.7-9.7-4.8-19-13.4-24.4c-5.1-3.1-12.7-3-18-0.3c-7,3.5-10.4,10.7-10.2,18.3c-0.2,6,2.7,11.1,7.3,14.9c3.2,2.7,8.5,2.5,12.2,1 c2.1-1.3,4-3.1,4.6-5.5c1.5-3.2,0.9-7.3-0.8-10.2c-1-1.7-2.9-3.1-4.9-3.5c-1.2,0-2.8-0.2-3.9,0.4c-0.8,0.7-1.6,1.5-1.7,2.5 c0,0.9,0.1,1.6,0.5,2.4c1.6-0.5,3.8-0.7,5.3,0.2c1.7,1.3,2.3,3.5,1.9,5.7c-0.2,1.6-0.8,3-2,4c-2.1,1.9-5.5,1.3-7.8,0.5 c-4.9-2.8-6.3-8.3-6.2-13.6c0.2-5.6,3.3-11.2,8.4-13.6c3.7-1.4,8.2-1,11.9,0.4c5.3,2.2,10,7.6,11.2,13.3c2.1,6.4,1.6,14.6-1.8,20.3 c-5,6.9-12.6,10.1-21.1,9.6c-10.1-0.8-19.8-7.4-23.1-17.3c-1.9-6.9-3.2-15.7-0.3-22.6c2.5-8,9.3-15.4,17.2-18.5 c4.1-1.8,8.9-2.7,13.5-2.5c2.9-0.1,5.7,0.6,8.4,1.2c7.9,2.6,16.3,7.5,20.7,15.2c5.7,9.4,9.7,19.7,8.9,31.5 c-0.4,10.6-6.6,19.6-14.7,26c-11.3,8.2-26.8,9.7-41.1,7.5c-9.5-1.8-17.7-7.8-24-15.5c-8.9-10.9-11.6-24.9-11-39.3 c0.7-11.8,6.7-21.5,14.3-30.5c10.1-11.5,23.8-17.5,39-18.1c7.8,0.2,15.5,1.3,22,5c7.1,3.4,13.7,8.7,17.9,15.7 c2.1,3.6,4.4,7.4,7.7,10.1c0.2,0,0.3,0,0.5,0.1C388.3,300.3,386.7,303.6,385.6,307.1L385.6,307.1z M439.9,309.3 c-5.6,4.3-10.5,9.8-13,16.2c-2.4,6.2-3.6,12.8-7.5,18.4c-4.5,7-11.1,13.5-18.8,16.5c-4.6,1.7-9.4,3-14.5,3.2 c-1.3,0.1-2.7-0.1-4-0.3c-1.7-8.7,0-18.2,0.6-27c0.7-7,2.5-13.6,4-20.3c1.3-4.8,2.7-9.5,4.5-14.1c1.9,2.4,1,5.7,0.8,8.4 c-1.2,7.5-1.6,15.9,1.6,22.6c1.5,3.3,4.6,5.9,7.7,7.7c3,1.5,6.6,0.8,9.4-0.6c5.4-3.5,7.7-9.6,7-15.9c-1-8-6.7-14-10.6-20.8 c-0.4-0.5-0.1-0.9,0-1.3c0.5-0.6,1.3-0.5,1.9-0.3c1.7,1,2.4,2.8,3.7,4.2c2.7,3.9,5.1,7.9,7.8,11.8c1.1,1.4,2.5,2,4,2 c0.4-0.1,0.7-0.2,1-0.4c3.9-4.5,7.3-10.4,13.4-12C439.9,307.3,440.8,308.5,439.9,309.3L439.9,309.3z"></path> </g> </svg>
