<?xml version="1.0" encoding="UTF-8"?>
<!-- Generator: Adobe Illustrator 27.0.1, SVG Export Plug-In . SVG Version: 6.00 Build 0) -->
<svg xmlns="http://www.w3.org/2000/svg" xmlns:xlink="http://www.w3.org/1999/xlink" version="1.1" id="Livello_1" x="0px" y="0px" viewBox="0 0 729 729" style="enable-background:new 0 0 729 729;" xml:space="preserve"> <style type="text/css"> .st0{fill:#E42313;} .st1{fill:none;stroke:#E42313;stroke-miterlimit:10;} .st2{fill:#FFFFFF;} </style> <g> <path class="st0" d="M364.5,728.5c201,0,364-162.9,364-364c0-201-163-364-364-364s-364,163-364,364 C0.5,565.6,163.5,728.5,364.5,728.5L364.5,728.5z"></path> <path class="st1" d="M364.5,728.5c201,0,364-162.9,364-364c0-201-163-364-364-364s-364,163-364,364 C0.5,565.6,163.5,728.5,364.5,728.5L364.5,728.5z"></path> <path class="st2" d="M460.6,237.6c-7.5,0-14.8,0.8-22,2.5c-16.1-22.9-43.4-36.8-73.4-36.9c-29.9-0.1-57.2,13.6-73.5,36.3 c-7.4-1.9-15.1-2.8-22.9-2.9c-48.5-0.1-88.1,36.3-88.2,81.2c-0.1,20.7,8.3,40.4,23.4,55.5c13,13,30.1,21.6,48.7,24.8 c8.1,26.9,7.9,89.9,7.9,114.8c0,6.6,5.2,12,11.7,12c29.9,0.1,54.8,0.2,81.1,0.3c29.4,0.1,60.5,0.2,102.3,0.3c3.2,0,6.3-1.3,8.5-3.7 c2.2-2.4,3.4-5.6,3.2-8.9c-2-37.2,0-85.2,8.6-113.8c18.6-3,35.7-11.6,48.7-24.4c15.3-15.1,23.7-34.8,23.8-55.5 C548.5,274.4,509.1,237.8,460.6,237.6L460.6,237.6z"></path> <path class="st0" d="M378.7,493.7c-5.6,3.3-12.1,4.6-19,4.8c6.7-4.1,14.4-9.3,18-16.7C378.2,485.6,378.4,489.8,378.7,493.7 L378.7,493.7z M385.9,436.4c-1.4,4.3-2.6,8.5-3.9,12.8c-0.8-2.6-1.6-5.2-2.7-7.8c-2.7-6.3-6.5-12.3-11.5-17.4 c-5.9-5.5-12.7-9.8-20.7-10.6c-5.7-1.3-12.4-0.7-17.8,1c-3.7,1-7,3.1-10.4,5.1c-4.8,3.3-7.8,8.3-10.5,13.1 c-2.1,5.1-4.1,10.4-3.5,16.5c-0.3,9.3,3,17.6,9.3,24.3c4.2,3.5,8.7,6.8,13.9,8.1c8.2,2.4,17.7,0.8,24.4-3.8 c3.4-2.4,5.5-5.7,7.6-9.2c1.7-4.1,2.5-8.4,2.6-13.1c-0.7-9.6-4.7-18.8-13.3-24.1c-5.1-3-12.6-3-17.8-0.3 c-6.9,3.5-10.3,10.6-10.1,18.2c-0.2,5.9,2.6,11,7.3,14.8c3.2,2.6,8.5,2.5,12,0.9c2.1-1.3,4-3.1,4.6-5.5c1.5-3.2,0.9-7.2-0.8-10.1 c-1-1.7-2.9-3.1-4.8-3.5c-1.2,0-2.8-0.2-3.9,0.4c-0.8,0.7-1.6,1.5-1.7,2.5c0,0.9,0.1,1.6,0.5,2.3c1.6-0.5,3.8-0.7,5.2,0.2 c1.7,1.3,2.2,3.5,1.8,5.6c-0.2,1.5-0.8,3-2,4c-2,1.9-5.4,1.3-7.8,0.5c-4.8-2.8-6.2-8.2-6.2-13.5c0.2-5.6,3.2-11.1,8.3-13.4 c3.7-1.4,8.1-1,11.8,0.4c5.2,2.2,9.9,7.5,11.1,13.2c2.1,6.3,1.6,14.4-1.8,20.1c-5,6.9-12.5,10-20.9,9.5c-10-0.8-19.6-7.4-22.9-17.1 c-1.8-6.9-3.2-15.5-0.3-22.3c2.4-8,9.2-15.3,17-18.3c4.1-1.8,8.8-2.6,13.4-2.5c2.9-0.1,5.6,0.6,8.3,1.2c7.8,2.6,16.1,7.5,20.5,15.1 c5.6,9.3,9.6,19.5,8.8,31.2c-0.4,10.5-6.6,19.4-14.6,25.8c-11.2,8.1-26.5,9.6-40.7,7.4c-9.4-1.8-17.6-7.7-23.8-15.3 c-8.8-10.8-11.5-24.7-10.9-38.9c0.7-11.7,6.7-21.3,14.2-30.2c10-11.4,23.5-17.3,38.6-17.9c7.7,0.2,15.4,1.3,21.8,4.9 c7,3.3,13.5,8.7,17.7,15.5c2.1,3.5,4.3,7.3,7.6,10c0.2,0,0.3,0,0.5,0.1C388.5,429.6,387,432.9,385.9,436.4L385.9,436.4z M439.7,438.5c-5.5,4.3-10.4,9.7-12.8,16c-2.4,6.1-3.6,12.7-7.4,18.2c-4.4,6.9-11,13.3-18.6,16.4c-4.6,1.6-9.3,2.9-14.4,3.2 c-1.2,0.1-2.7-0.1-3.9-0.3c-1.6-8.6,0-18,0.6-26.7c0.7-6.9,2.4-13.5,3.9-20.1c1.3-4.7,2.7-9.4,4.4-13.9c1.9,2.3,1,5.6,0.8,8.3 c-1.2,7.4-1.6,15.8,1.6,22.4c1.5,3.3,4.6,5.9,7.6,7.6c3,1.5,6.6,0.8,9.3-0.6c5.3-3.4,7.6-9.5,6.9-15.7c-1-7.9-6.7-13.9-10.5-20.6 c-0.4-0.5-0.1-0.9,0-1.3c0.5-0.6,1.3-0.5,1.9-0.3c1.7,1,2.4,2.8,3.6,4.2c2.7,3.9,5.1,7.9,7.8,11.7c1,1.4,2.4,1.9,4,2 c0.3-0.1,0.7-0.2,1-0.4c3.9-4.4,7.3-10.3,13.2-11.9C439.7,436.5,440.5,437.7,439.7,438.5L439.7,438.5z"></path> </g> </svg>
