<?xml version="1.0" encoding="UTF-8"?>
<!-- Generator: Adobe Illustrator 27.0.1, SVG Export Plug-In . SVG Version: 6.00 Build 0) -->
<svg xmlns="http://www.w3.org/2000/svg" xmlns:xlink="http://www.w3.org/1999/xlink" version="1.1" id="Livello_1" x="0px" y="0px" viewBox="0 0 728 728" style="enable-background:new 0 0 728 728;" xml:space="preserve"> <style type="text/css"> .st0{fill:#E42313;} .st1{fill:#FFFFFF;} </style> <g> <path class="st0" d="M364,728c201,0,364-162.9,364-364C728,163,565,0,364,0S0,163,0,364C0,565.1,163,728,364,728L364,728z"></path> <path class="st1" d="M464.2,236.8c23.1,0,41.9-18.8,41.9-41.9c0-23.1-18.7-41.8-41.9-41.8c-23.1,0-41.9,18.7-41.9,41.8 C422.3,218,441,236.8,464.2,236.8"></path> <path class="st1" d="M556.7,388.7l-37.8-121.8c-3.5-11.1-12-20.4-23.3-23.7c-12.1-3.5-18.8,1.7-25.1,6.7 c-0.9,0.7-81.2,69.1-81.2,69.1L268.4,175.5c-3.3-3.9-9.2-4.4-13.2-1.1c-4,3.3-4.5,9.2-1.1,13.2l6.5,7.8l-43.5,43.5 c-2.2,2.2-2.9,5.5-1.8,8.5l4.8,12.5c1.8,4.8,7.9,6.4,11.9,3.1l50.3-41.9l93.5,111c-5.1,8.4-4.5,19.4,2.2,27.3 c4.6,5.4,11.2,8.2,17.8,8.2c2.9,0,5.8-0.5,8.5-1.6l10.7,12.7c1.8,2.2,4.5,3.3,7.1,3.3c2.1,0,4.3-0.7,6-2.2c4-3.3,4.5-9.2,1.1-13.2 l-10-11.8l53.6-45.9l28.4,91.7v145.1c0,13.6,9.1,26.1,22.5,28.7c18,3.6,33.9-10.1,33.9-27.5V396.3 C557.8,393.7,557.4,391.2,556.7,388.7"></path> <path class="st1" d="M342.4,521.4c-2.9,0-5.6,0.1-8.6,0.3l-5.4,0.6c-13.9,1.9-25.7,6.6-33.6,13.2c-11.5-11.5-33-19-57.9-19 c-1.7,0-3.6,0.1-4.8,0.1l-7.3,0.6c-30.9,3.6-54.7,21.1-54.7,37.8c0,18.8,230.2,18.8,230.2,0C400.3,536.2,374.4,521.4,342.4,521.4"></path> <path class="st1" d="M236.2,533.3h1.9c3.6-0.8,3.4-4.3,3.5-8.4c0.3-5.9,0.5-11.5,1.1-16.5c2.7-20.8,12.1-35.4,21.7-48.8 c-3.1,7.3-6.1,14.8-6.5,24.8c8.1,0.1,13.1-2.6,17.3-6.7c9.2-9.2,13-24.9,14.2-41.1c-10.6,0.6-20.7,2.6-29.2,6.5 c-8,3.6-15.3,9.5-17.3,18.5c-1.1,4.8-0.4,11.1,1.1,15.4c-3,4.9-5.3,10.4-7.1,16.4c-1.8-3.1-4.1-5.8-6.4-8.4 c3.4-11.9-3-19.4-9.9-23.6c-7.3-4.3-17.5-6.8-27.6-7.2c0.5,8.6,2.2,17.1,5.4,24c3.5,7.4,9.4,14,20.2,13.7 c-0.6-8.2-4.9-13.9-8.9-19.2c5.9,4.2,10.5,9.9,14.5,16.2c2.6,4.2,6.1,9.9,7.9,15.3c0.7,2,1.6,4.4,1.7,6.2c0.1,1.4-0.3,3.1-0.5,4.8 c-0.1,1.6-0.2,3.3-0.3,5C232.7,525.4,231.7,532.7,236.2,533.3"></path> <path class="st1" d="M346.6,534.5h-1.9c-3.6-0.8-3.4-4.3-3.5-8.3c-0.3-5.9-0.5-51.5-1.1-56.5c-2.7-20.8-12.1-35.4-21.6-48.8 c3.1,7.3,6.1,14.8,6.5,24.8c-8.1,0.1-13.1-2.6-17.3-6.7c-9.2-9.2-13-24.9-14.2-41.1c10.6,0.6,20.7,2.6,29.2,6.5 c8,3.6,15.3,9.5,17.3,18.5c1.1,4.8,0.4,11.1-1.1,15.4c3,4.9,5.3,10.4,7.1,16.4c1.8-3.1,4.1-5.8,6.4-8.4c-3.4-11.9,3-19.4,9.9-23.6 c7.3-4.3,17.5-6.8,27.6-7.2c-0.5,8.6-2.2,17.1-5.4,24c-3.5,7.4-9.4,14-20.2,13.7c0.6-8.2,4.9-13.9,8.9-19.2 c-5.9,4.2-10.5,9.9-14.5,16.2c-2.6,4.2-6.1,9.9-7.9,15.3c-0.7,2-1.6,4.4-1.7,6.2c-0.1,1.4,0.3,3.1,0.5,4.8c0.1,1.6,0.2,3.4,0.3,5 C350.1,486.5,351.1,533.9,346.6,534.5"></path> </g> </svg>
