<?xml version="1.0" encoding="UTF-8"?>
<!-- Generator: Adobe Illustrator 27.0.1, SVG Export Plug-In . SVG Version: 6.00 Build 0) -->
<svg xmlns="http://www.w3.org/2000/svg" xmlns:xlink="http://www.w3.org/1999/xlink" version="1.1" id="Livello_1" x="0px" y="0px" viewBox="0 0 728 728" style="enable-background:new 0 0 728 728;" xml:space="preserve"> <style type="text/css"> .st0{fill:#E42313;} .st1{fill:#FFFFFF;} </style> <g> <path class="st0" d="M364,728c201,0,364-162.9,364-364C728,163,565,0,364,0C163,0,0,163,0,364C0,565.1,163,728,364,728L364,728z"></path> <path class="st1" d="M291.4,336.2c5.9,0,10.7,5.4,10.7,12c0,6.6-4.8,12-10.7,12c-5.9,0-10.7-5.4-10.7-12 C280.7,341.5,285.5,336.2,291.4,336.2 M366.4,237.1l38.7,80.9H364h-42.3L366.4,237.1L366.4,237.1z M446.1,349.2 c0,6.6-4.8,12-10.7,12c-5.9,0-10.7-5.4-10.7-12c0-6.6,4.8-12,10.7-12C441.3,337.2,446.1,342.6,446.1,349.2 M521.8,318h-87.4 l-55.7-116.7c-2.2-4.6-6.4-7.5-11-7.6c-4.6-0.2-8.9,2.5-11.4,6.8L291.4,318h-85.2c-5.7,0-10.3,5.2-10.3,11.6v36.3 c0,6.4,4.6,11.5,10.3,11.5h11.1l26.7,131c3.7,14.2,17.8,25.9,31.3,25.9h89.1h89.1c13.5,0,27.6-11.6,31.3-25.9l26.7-131h10.2 c5.7,0,10.3-5.2,10.3-11.5v-36.3C532.1,323.2,527.5,318,521.8,318"></path> <path class="st0" d="M380.2,495.5c-6.4,3.8-13.8,5.3-21.7,5.4c7.7-4.7,16.5-10.6,20.6-19C379.7,486.2,379.9,491.1,380.2,495.5 L380.2,495.5z M388.4,430c-1.6,4.9-2.9,9.7-4.4,14.6c-0.9-2.9-1.8-6-3.1-8.9c-3-7.2-7.4-14.1-13.1-19.8 c-6.8-6.3-14.5-11.2-23.7-12.1c-6.5-1.4-14.1-0.8-20.3,1.2c-4.3,1.2-8,3.6-11.9,5.8c-5.5,3.8-8.9,9.5-12,15 c-2.4,5.8-4.7,11.9-4,18.8c-0.3,10.6,3.4,20.2,10.6,27.7c4.8,4,9.9,7.8,15.9,9.3c9.4,2.7,20.2,0.9,27.8-4.3 c3.9-2.7,6.3-6.6,8.7-10.5c1.9-4.7,2.9-9.6,3-14.9c-0.8-10.9-5.4-21.5-15.2-27.5c-5.8-3.5-14.4-3.4-20.3-0.3 c-7.9,4-11.8,12.2-11.6,20.7c-0.2,6.8,3,12.6,8.3,16.9c3.7,3,9.6,2.8,13.8,1.1c2.4-1.5,4.6-3.5,5.2-6.2c1.7-3.6,1-8.2-0.9-11.6 c-1.2-1.9-3.3-3.6-5.5-4c-1.4-0.1-3.2-0.2-4.4,0.4c-0.9,0.8-1.8,1.7-2,2.8c0.1,1,0.1,1.8,0.6,2.7c1.8-0.6,4.3-0.8,6,0.2 c1.9,1.5,2.6,4,2.1,6.4c-0.2,1.8-0.9,3.4-2.3,4.5c-2.3,2.2-6.2,1.5-8.9,0.6c-5.5-3.2-7.1-9.4-7-15.4c0.2-6.3,3.7-12.7,9.5-15.3 c4.2-1.6,9.3-1.1,13.5,0.4c6,2.5,11.3,8.6,12.6,15c2.4,7.2,1.8,16.5-2,22.9c-5.7,7.8-14.2,11.4-23.9,10.9 c-11.4-0.9-22.4-8.4-26.2-19.6c-2.1-7.8-3.7-17.7-0.3-25.5c2.8-9.1,10.5-17.4,19.4-20.9c4.6-2.1,10.1-3,15.2-2.8 c3.3-0.1,6.4,0.7,9.5,1.3c8.9,2.9,18.4,8.5,23.4,17.2c6.4,10.6,11,22.3,10.1,35.6c-0.4,11.9-7.5,22.1-16.6,29.4 c-12.8,9.3-30.3,11-46.4,8.4c-10.7-2-20.1-8.8-27.2-17.5c-10-12.3-13.1-28.2-12.5-44.4c0.8-13.4,7.6-24.4,16.2-34.5 c11.4-13,26.9-19.8,44.1-20.5c8.8,0.2,17.5,1.5,24.9,5.6c8,3.8,15.5,9.9,20.2,17.7c2.4,4,4.9,8.3,8.7,11.4c0.2,0,0.4,0,0.5,0.1 C391.5,422.4,389.6,426.1,388.4,430L388.4,430z M449.8,432.5c-6.3,4.9-11.8,11.1-14.7,18.3c-2.8,7-4.1,14.5-8.5,20.8 c-5,7.9-12.6,15.2-21.3,18.7c-5.2,1.9-10.6,3.4-16.4,3.6c-1.4,0.1-3-0.1-4.5-0.3c-1.9-9.9,0-20.5,0.6-30.5c0.8-7.9,2.8-15.4,4.5-23 c1.5-5.4,3-10.7,5.1-15.9c2.1,2.7,1.1,6.4,0.9,9.4c-1.4,8.5-1.8,18,1.8,25.6c1.7,3.7,5.3,6.7,8.7,8.7c3.4,1.7,7.5,0.9,10.7-0.7 c6.1-3.9,8.7-10.9,7.9-18c-1.1-9-7.6-15.9-12-23.5c-0.4-0.5-0.1-1,0-1.5c0.6-0.7,1.4-0.6,2.2-0.3c1.9,1.1,2.7,3.2,4.1,4.8 c3.1,4.4,5.8,9,8.9,13.4c1.2,1.6,2.8,2.2,4.6,2.3c0.4-0.2,0.8-0.2,1.2-0.5c4.4-5.1,8.3-11.8,15.1-13.6 C449.8,430.2,450.8,431.6,449.8,432.5L449.8,432.5z"></path> </g> </svg>
